<?xml version="1.0" standalone="no"?>
<!DOCTYPE svg PUBLIC "-//W3C//DTD SVG 20010904//EN"
 "http://www.w3.org/TR/2001/REC-SVG-20010904/DTD/svg10.dtd">
<svg version="1.0" xmlns="http://www.w3.org/2000/svg"
 width="1042.000000pt" height="1042.000000pt" viewBox="0 0 1042.000000 1042.000000"
 preserveAspectRatio="xMidYMid meet">
<metadata>
Created by potrace 1.14, written by Peter Selinger 2001-2017
</metadata>
<g transform="translate(0.000000,1042.000000) scale(0.100000,-0.100000)"
fill="#000000" stroke="none">
<path d="M5167 10344 c-1 -1 -78 -5 -172 -8 -93 -4 -186 -8 -205 -11 -19 -2
-66 -7 -105 -10 -102 -10 -163 -18 -234 -30 -14 -2 -46 -6 -71 -10 -25 -3 -65
-10 -90 -15 -25 -5 -56 -12 -70 -14 -14 -3 -36 -7 -50 -10 -14 -3 -36 -8 -50
-11 -14 -3 -34 -7 -45 -9 -239 -47 -628 -175 -920 -302 -1025 -446 -1871
-1216 -2438 -2219 -23 -41 -184 -367 -217 -440 -56 -122 -218 -576 -234 -656
-3 -13 -21 -89 -41 -169 -33 -132 -64 -281 -79 -385 -4 -23 -8 -50 -10 -61 -2
-12 -7 -45 -11 -74 -4 -29 -8 -60 -10 -69 -1 -9 -6 -52 -10 -96 -4 -44 -8 -91
-10 -104 -6 -35 -18 -332 -18 -436 0 -96 11 -367 18 -425 2 -19 6 -60 9 -90
14 -127 16 -147 21 -185 17 -128 39 -248 72 -395 44 -199 55 -242 101 -390 14
-47 26 -87 27 -90 6 -35 131 -367 173 -460 36 -81 184 -380 220 -445 305 -547
736 -1071 1186 -1440 27 -22 54 -44 60 -50 32 -29 162 -129 241 -185 50 -35
106 -75 125 -89 19 -14 44 -31 55 -37 11 -6 65 -39 119 -74 495 -314 1084
-548 1681 -669 83 -16 168 -33 190 -36 23 -3 50 -7 60 -9 11 -2 63 -9 115 -15
52 -6 113 -14 135 -17 22 -2 78 -7 125 -10 47 -3 114 -7 150 -9 80 -6 421 -5
510 0 122 7 235 15 260 19 14 2 52 7 85 10 33 4 71 8 85 10 14 3 59 10 100 16
41 6 86 14 100 16 14 2 41 7 60 10 28 4 164 34 270 59 214 50 469 133 715 232
536 217 1034 527 1480 922 63 57 365 359 425 426 352 395 673 902 880 1390
182 428 314 912 365 1330 3 28 8 64 10 80 6 34 12 98 22 235 15 189 8 761 -11
880 -3 14 -7 54 -11 90 -3 36 -8 74 -10 85 -2 11 -7 43 -10 70 -20 182 -116
592 -194 830 -204 628 -566 1275 -976 1745 -613 702 -1295 1175 -2156 1495
-219 82 -609 189 -799 219 -19 3 -46 8 -60 11 -44 9 -223 34 -280 40 -30 3
-75 8 -99 11 -55 8 -84 10 -296 19 -222 9 -256 10 -258 9z m223 -2198 c30 -3
64 -8 75 -10 11 -2 40 -7 65 -11 25 -4 96 -23 158 -41 355 -107 670 -338 882
-645 165 -240 259 -501 286 -789 7 -81 7 -281 0 -317 -4 -21 -1 -23 32 -23
108 -1 258 -64 348 -148 61 -56 126 -154 149 -223 87 -261 -30 -550 -270 -668
-134 -66 -5 -62 -1901 -63 -1334 0 -1734 2 -1775 12 -98 22 -195 76 -268 148
-115 114 -164 232 -165 392 0 100 15 162 60 251 85 171 283 296 475 299 24 0
25 1 19 54 -10 96 -2 308 16 401 2 11 7 36 10 55 12 70 47 187 86 289 119 306
336 576 612 762 78 52 236 140 251 139 3 0 19 6 35 15 89 46 317 107 450 120
36 4 66 8 67 9 5 4 251 -2 303 -8z m1286 -3315 c-2 -3 -33 -67 -69 -141 -120
-250 -209 -434 -299 -620 -50 -102 -112 -230 -138 -285 -26 -55 -87 -181 -135
-280 -48 -99 -116 -238 -150 -310 -34 -71 -97 -202 -140 -290 -43 -88 -113
-232 -155 -320 -92 -191 -125 -232 -225 -281 -66 -33 -83 -37 -152 -37 -99 0
-169 26 -241 89 -49 43 -64 67 -172 288 -65 133 -140 288 -168 346 -27 58 -96
200 -152 315 -56 116 -117 242 -135 280 -18 39 -87 182 -154 318 -67 137 -121
250 -121 251 0 2 -57 120 -126 262 -132 274 -196 405 -201 415 -1 3 659 6
1467 6 808 0 1468 -3 1466 -6z"/>
</g>
</svg>
